<?xml version="1.0" encoding="UTF-8"?>
<!-- (c) ammap.com | SVG weather icons -->
<svg width="56" height="56" version="1.1" xmlns="http://www.w3.org/2000/svg">
 <defs>
  <filter id="blur" x="-.24684" y="-.22892" width="1.4937" height="1.5576">
   <feGaussianBlur in="SourceAlpha" stdDeviation="3"/>
   <feOffset dx="0" dy="4" result="offsetblur"/>
   <feComponentTransfer>
    <feFuncA slope="0.05" type="linear"/>
   </feComponentTransfer>
   <feMerge>
    <feMergeNode/>
    <feMergeNode in="SourceGraphic"/>
   </feMerge>
  </filter>
  <style type="text/css"><![CDATA[
/*
** RAIN
*/
@keyframes am-weather-rain {
  0% {
    stroke-dashoffset: 0;
  }

  100% {
    stroke-dashoffset: -100;
  }
}

.am-weather-rain-1 {
  -webkit-animation-name: am-weather-rain;
     -moz-animation-name: am-weather-rain;
      -ms-animation-name: am-weather-rain;
          animation-name: am-weather-rain;
  -webkit-animation-duration: 8s;
     -moz-animation-duration: 8s;
      -ms-animation-duration: 8s;
          animation-duration: 8s;
  -webkit-animation-timing-function: linear;
     -moz-animation-timing-function: linear;
      -ms-animation-timing-function: linear;
          animation-timing-function: linear;
  -webkit-animation-iteration-count: infinite;
     -moz-animation-iteration-count: infinite;
      -ms-animation-iteration-count: infinite;
          animation-iteration-count: infinite;
}

.am-weather-rain-2 {
  -webkit-animation-name: am-weather-rain;
     -moz-animation-name: am-weather-rain;
      -ms-animation-name: am-weather-rain;
          animation-name: am-weather-rain;
  -webkit-animation-delay: 0.25s;
     -moz-animation-delay: 0.25s;
      -ms-animation-delay: 0.25s;
          animation-delay: 0.25s;
  -webkit-animation-duration: 8s;
     -moz-animation-duration: 8s;
      -ms-animation-duration: 8s;
          animation-duration: 8s;
  -webkit-animation-timing-function: linear;
     -moz-animation-timing-function: linear;
      -ms-animation-timing-function: linear;
          animation-timing-function: linear;
  -webkit-animation-iteration-count: infinite;
     -moz-animation-iteration-count: infinite;
      -ms-animation-iteration-count: infinite;
          animation-iteration-count: infinite;
}
        ]]></style>
 </defs>
 <g filter="url(#blur)">
  <g transform="translate(20,10)">
   <path transform="translate(-20,-11)" d="m47.7 35.4c0-4.6-3.7-8.2-8.2-8.2-1 0-1.9 0.2-2.8 0.5-0.3-3.4-3.1-6.2-6.6-6.2-3.7 0-6.7 3-6.7 6.7 0 0.8 0.2 1.6 0.4 2.3-0.3-0.1-0.7-0.1-1-0.1-3.7 0-6.7 3-6.7 6.7 0 3.6 2.9 6.6 6.5 6.7h17.2c4.4-0.5 7.9-4 7.9-8.4z" fill="#57A0EE" stroke="#fff" stroke-linejoin="round" stroke-width="1.2"/>
  </g>
  <g transform="translate(31 46) rotate(10)" fill="none" stroke="#91C0F8" stroke-dasharray="4,4" stroke-linecap="round" stroke-width="2">
   <line class="am-weather-rain-1" transform="translate(-4,1)" y2="8"/>
   <line class="am-weather-rain-2" transform="translate(0,-1)" y2="8"/>
   <line class="am-weather-rain-1" transform="translate(4)" y2="8"/>
  </g>
 </g>
</svg>
