<?xml version="1.0" encoding="UTF-8"?>
<!-- (c) ammap.com | SVG weather icons -->
<svg width="56" height="56" version="1.1" xmlns="http://www.w3.org/2000/svg">
 <defs>
  <filter id="blur" x="-.24684" y="-.26897" width="1.4937" height="1.6759">
   <feGaussianBlur in="SourceAlpha" stdDeviation="3"/>
   <feOffset dx="0" dy="4" result="offsetblur"/>
   <feComponentTransfer>
    <feFuncA slope="0.05" type="linear"/>
   </feComponentTransfer>
   <feMerge>
    <feMergeNode/>
    <feMergeNode in="SourceGraphic"/>
   </feMerge>
  </filter>
  <style type="text/css"><![CDATA[
/*
** SNOW
*/
@keyframes am-weather-snow {
  0% {
    -webkit-transform: translate(0.0px,0);
       -moz-transform: translate(0.0px,0);
        -ms-transform: translate(0.0px,0);
            transform: translate(0.0px,0);
  }

  33.33% {
    -webkit-transform: translate(-1.2px,2px);
       -moz-transform: translate(-1.2px,2px);
        -ms-transform: translate(-1.2px,2px);
            transform: translate(-1.2px,2px);
  }

  66.66% {
    -webkit-transform: translate(1.4px,4px);
       -moz-transform: translate(1.4px,4px);
        -ms-transform: translate(1.4px,4px);
            transform: translate(1.4px,4px);
    opacity: 1;
  }

  100% {
    -webkit-transform: translate(-1.6px,6px);
       -moz-transform: translate(-1.6px,6px);
        -ms-transform: translate(-1.6px,6px);
            transform: translate(-1.6px,6px);
    opacity: 0;
  }
}

.am-weather-snow-1 {
  -webkit-animation-name: am-weather-snow;
     -moz-animation-name: am-weather-snow;
      -ms-animation-name: am-weather-snow;
          animation-name: am-weather-snow;
  -webkit-animation-duration: 2s;
     -moz-animation-duration: 2s;
      -ms-animation-duration: 2s;
          animation-duration: 2s;
  -webkit-animation-timing-function: linear;
     -moz-animation-timing-function: linear;
      -ms-animation-timing-function: linear;
          animation-timing-function: linear;
  -webkit-animation-iteration-count: infinite;
     -moz-animation-iteration-count: infinite;
      -ms-animation-iteration-count: infinite;
          animation-iteration-count: infinite;
}

        ]]></style>
 </defs>
 <g transform="translate(-4 -4)" filter="url(#blur)">
  <g transform="translate(20,10)">
   <path transform="translate(-20,-11)" d="m47.7 35.4c0-4.6-3.7-8.2-8.2-8.2-1 0-1.9 0.2-2.8 0.5-0.3-3.4-3.1-6.2-6.6-6.2-3.7 0-6.7 3-6.7 6.7 0 0.8 0.2 1.6 0.4 2.3-0.3-0.1-0.7-0.1-1-0.1-3.7 0-6.7 3-6.7 6.7 0 3.6 2.9 6.6 6.5 6.7h17.2c4.4-0.5 7.9-4 7.9-8.4z" fill="#57a0ee" stroke="#fff" stroke-linejoin="round" stroke-width="1.2"/>
   <g class="am-weather-snow-1" style="-moz-animation-duration:2s;-moz-animation-iteration-count:infinite;-moz-animation-name:am-weather-snow;-moz-animation-timing-function:linear;-ms-animation-duration:2s;-ms-animation-iteration-count:infinite;-ms-animation-name:am-weather-snow;-ms-animation-timing-function:linear;-webkit-animation-duration:2s;-webkit-animation-iteration-count:infinite;-webkit-animation-name:am-weather-snow;-webkit-animation-timing-function:linear">
    <g transform="translate(11,28)" fill="none" stroke="#57a0ee" stroke-linecap="round">
     <line transform="translate(0,9)" y1="-2.5" y2="2.5" stroke-width="1.2"/>
     <line transform="rotate(45 -10.864 4.5)" y1="-2.5" y2="2.5"/>
     <line transform="rotate(90,-4.5,4.5)" y1="-2.5" y2="2.5"/>
     <line transform="rotate(135 -1.864 4.5)" y1="-2.5" y2="2.5"/>
    </g>
   </g>
  </g>
 </g>
</svg>
