<svg xmlns="http://www.w3.org/2000/svg" width="96" height="96" viewBox="0 0 96 96"><defs><style>.cls-1{fill:#fff;opacity:0.1;}.cls-2{fill:#aaa;}.cls-3{fill:none;}</style></defs><title>00-missing-data</title><g id="Forecast_Icons_Outlined" data-name="Forecast Icons Outlined"><path class="cls-1" d="M77.55,47.91a10.47,10.47,0,0,0,.87-4.19,10.52,10.52,0,0,0-14-10.07,23.69,23.69,0,0,0-46.48,5.57,19.16,19.16,0,0,0,3.53,38c.18,0,.35,0,.53,0v0H73.87a14.9,14.9,0,0,0,3.68-29.3Z"/><path class="cls-2" d="M81.17,49.35A1.3,1.3,0,0,1,80,50.1a1.37,1.37,0,0,1-.55-.12,12.55,12.55,0,0,0-2.22-.81,1.31,1.31,0,0,1-.86-1.77A9.22,9.22,0,0,0,77,45.22a1.32,1.32,0,0,1,1.5-1.08,1.3,1.3,0,0,1,1.07,1.5,12.45,12.45,0,0,1-.33,1.44c.45.16.88.34,1.31.54A1.3,1.3,0,0,1,81.17,49.35ZM75.89,39.09a1.31,1.31,0,0,0,1.13.66,1.4,1.4,0,0,0,.65-.17,1.3,1.3,0,0,0,.48-1.77,12,12,0,0,0-3.62-4,1.31,1.31,0,0,0-1.81.34,1.3,1.3,0,0,0,.34,1.8A9.4,9.4,0,0,1,75.89,39.09Zm-9-7.29a12.63,12.63,0,0,0-1.56.25c-.15-.45-.32-.9-.5-1.34a1.3,1.3,0,0,0-2.41,1,21.93,21.93,0,0,1,.8,2.32,1.35,1.35,0,0,0,.64.8,1.31,1.31,0,0,0,.61.15,1.14,1.14,0,0,0,.41-.07,10.55,10.55,0,0,1,2.24-.49A1.3,1.3,0,0,0,68.25,33,1.33,1.33,0,0,0,66.84,31.8ZM36.1,17a1.3,1.3,0,0,0-1.61-.88,24.71,24.71,0,0,0-5.21,2.23,1.3,1.3,0,1,0,1.29,2.25,22.51,22.51,0,0,1,4.66-2A1.3,1.3,0,0,0,36.1,17Zm22.27,8.25a1.3,1.3,0,0,0,1.84.11,1.29,1.29,0,0,0,.11-1.83,25.23,25.23,0,0,0-4.2-3.8,1.3,1.3,0,0,0-1.52,2.12A22.13,22.13,0,0,1,58.37,25.23ZM42.77,17.7a22.72,22.72,0,0,1,5,.83,1.49,1.49,0,0,0,.36,0A1.3,1.3,0,0,0,48.49,16a25,25,0,0,0-5.59-.93,1.31,1.31,0,0,0-1.36,1.24A1.29,1.29,0,0,0,42.77,17.7ZM20.07,30.13a1.31,1.31,0,0,0,1.76-.54A22.54,22.54,0,0,1,24.7,25.4a1.3,1.3,0,0,0-2-1.7,25.25,25.25,0,0,0-3.2,4.67A1.31,1.31,0,0,0,20.07,30.13Zm-.83,9.13a22.34,22.34,0,0,1,.22-2.44,1.3,1.3,0,0,0-2.57-.37c-.08.56-.15,1.13-.19,1.7q-.86.21-1.68.48a1.3,1.3,0,0,0,.41,2.54,1.53,1.53,0,0,0,.41-.07,17.08,17.08,0,0,1,2.34-.6A1.3,1.3,0,0,0,19.24,39.26ZM3.6,58.05c0-.27,0-.53,0-.79A1.29,1.29,0,0,0,2.37,55.9,1.31,1.31,0,0,0,1,57.14c0,.3,0,.6,0,.91a20.21,20.21,0,0,0,.67,5.2,1.29,1.29,0,0,0,1.25,1,1.24,1.24,0,0,0,.33,0,1.3,1.3,0,0,0,.93-1.59A17.72,17.72,0,0,1,3.6,58.05ZM12,73.19A18.18,18.18,0,0,1,7.9,69.68a1.3,1.3,0,1,0-2,1.7,21,21,0,0,0,4.65,4,1.38,1.38,0,0,0,.7.2,1.31,1.31,0,0,0,1.1-.61A1.3,1.3,0,0,0,12,73.19ZM9,45.27A1.3,1.3,0,1,0,7.18,43.4a20.36,20.36,0,0,0-3.71,4.9A1.29,1.29,0,0,0,4,50.06a1.25,1.25,0,0,0,.62.16,1.28,1.28,0,0,0,1.14-.68A17.77,17.77,0,0,1,9,45.27ZM24.6,75.92H22.27a1.05,1.05,0,0,0-.31,0l-.28,0a12.67,12.67,0,0,1-2.13-.1,1.3,1.3,0,0,0-.28,2.59,14.47,14.47,0,0,0,2.54.1l.19,0h2.6a1.3,1.3,0,0,0,0-2.6Zm13,0H32.38a1.3,1.3,0,0,0,0,2.6h5.18a1.3,1.3,0,0,0,0-2.6Zm25.93,0H58.31a1.3,1.3,0,0,0,0,2.6h5.18a1.3,1.3,0,1,0,0-2.6Zm-13,0H45.34a1.3,1.3,0,0,0,0,2.6h5.19a1.3,1.3,0,0,0,0-2.6Zm25.68-.24a14.3,14.3,0,0,1-2.36.23H71.27a1.3,1.3,0,0,0,0,2.6H74a15.78,15.78,0,0,0,2.65-.28,1.3,1.3,0,1,0-.48-2.55Zm11.66-8.54a1.3,1.3,0,0,0-1.71.66,13.59,13.59,0,0,1-3,4.3,1.31,1.31,0,0,0,0,1.84,1.33,1.33,0,0,0,.94.39A1.29,1.29,0,0,0,85,74a16.07,16.07,0,0,0,3.58-5.11A1.3,1.3,0,0,0,87.87,67.14ZM87.5,53.79a1.3,1.3,0,0,0-2.22,1.37,13.39,13.39,0,0,1,1.85,4.9,1.31,1.31,0,0,0,1.28,1.09l.22,0a1.3,1.3,0,0,0,1.06-1.49A16,16,0,0,0,87.5,53.79Z"/><rect class="cls-3" x="-0.06" width="96" height="96"/><path class="cls-2" d="M45.46,40a12,12,0,1,0,12,12A12,12,0,0,0,45.46,40Zm-9.4,12a9.4,9.4,0,0,1,9.4-9.39,9.29,9.29,0,0,1,5.66,1.92L38,57.65A9.34,9.34,0,0,1,36.06,52Zm9.4,9.4a9.34,9.34,0,0,1-5.67-1.92L52.93,46.32A9.31,9.31,0,0,1,54.85,52,9.41,9.41,0,0,1,45.46,61.38Z"/></g></svg>