<svg xmlns="http://www.w3.org/2000/svg" width="96" height="96" viewBox="0 0 96 96"><defs><style>.cls-1{opacity:0.1;}.cls-2{fill:#fff;}.cls-3{fill:#7b7b7b;}.cls-4{fill:none;}</style></defs><title>00-missing-data-night</title><g id="Forecast_Icons_Outlined" data-name="Forecast Icons Outlined"><g class="cls-1"><path class="cls-2" d="M88.61,62.3A14.9,14.9,0,0,0,77.55,47.91a10.47,10.47,0,0,0,.87-4.19,10.52,10.52,0,0,0-14-10.07,23.69,23.69,0,0,0-46.48,5.57,19.16,19.16,0,0,0,3.53,38c.18,0,.35,0,.53,0v0H73.87A14.91,14.91,0,0,0,88.61,62.3Z"/></g><path class="cls-3" d="M80.54,47.62c-.43-.2-.86-.38-1.31-.54a12.45,12.45,0,0,0,.33-1.44,1.3,1.3,0,0,0-1.07-1.5A1.32,1.32,0,0,0,77,45.22a9.22,9.22,0,0,1-.63,2.18,1.31,1.31,0,0,0,.86,1.77,12.55,12.55,0,0,1,2.22.81,1.37,1.37,0,0,0,.55.12,1.3,1.3,0,0,0,.55-2.48Z"/><path class="cls-3" d="M75.89,39.09a1.31,1.31,0,0,0,1.13.66,1.4,1.4,0,0,0,.65-.17,1.3,1.3,0,0,0,.48-1.77,12.11,12.11,0,0,0-3.62-4A1.3,1.3,0,0,0,73.06,36,9.27,9.27,0,0,1,75.89,39.09Z"/><path class="cls-3" d="M66.84,31.8a12.63,12.63,0,0,0-1.56.25c-.15-.45-.32-.9-.5-1.34a1.3,1.3,0,0,0-2.41,1,21.93,21.93,0,0,1,.8,2.32,1.35,1.35,0,0,0,.64.8,1.31,1.31,0,0,0,.61.15,1.14,1.14,0,0,0,.41-.07,10.55,10.55,0,0,1,2.24-.49A1.3,1.3,0,0,0,68.25,33,1.33,1.33,0,0,0,66.84,31.8Z"/><path class="cls-3" d="M58.37,25.23a1.3,1.3,0,0,0,1.84.11,1.29,1.29,0,0,0,.11-1.83,25.23,25.23,0,0,0-4.2-3.8,1.3,1.3,0,0,0-1.52,2.12A22.13,22.13,0,0,1,58.37,25.23Z"/><path class="cls-3" d="M36.1,17a1.3,1.3,0,0,0-1.61-.88,24.71,24.71,0,0,0-5.21,2.23,1.3,1.3,0,1,0,1.29,2.25,22.51,22.51,0,0,1,4.66-2A1.3,1.3,0,0,0,36.1,17Z"/><path class="cls-3" d="M42.77,17.7a22.72,22.72,0,0,1,5,.83,1.49,1.49,0,0,0,.36,0A1.3,1.3,0,0,0,48.49,16a25,25,0,0,0-5.59-.93,1.31,1.31,0,0,0-1.36,1.24A1.29,1.29,0,0,0,42.77,17.7Z"/><path class="cls-3" d="M20.07,30.13a1.31,1.31,0,0,0,1.76-.54A22.54,22.54,0,0,1,24.7,25.4a1.3,1.3,0,0,0-2-1.7,25.25,25.25,0,0,0-3.2,4.67A1.31,1.31,0,0,0,20.07,30.13Z"/><path class="cls-3" d="M19.24,39.26a22.34,22.34,0,0,1,.22-2.44,1.3,1.3,0,0,0-2.57-.37c-.08.56-.15,1.13-.19,1.7q-.86.21-1.68.48a1.3,1.3,0,0,0,.41,2.54,1.53,1.53,0,0,0,.41-.07,17.08,17.08,0,0,1,2.34-.6A1.31,1.31,0,0,0,19.24,39.26Z"/><path class="cls-3" d="M12,73.19A18.18,18.18,0,0,1,7.9,69.68a1.3,1.3,0,1,0-2,1.7,20.78,20.78,0,0,0,4.66,4A1.29,1.29,0,0,0,12.38,75,1.3,1.3,0,0,0,12,73.19Z"/><path class="cls-3" d="M3.6,58.05c0-.27,0-.53,0-.79A1.29,1.29,0,0,0,2.37,55.9,1.32,1.32,0,0,0,1,57.14c0,.3,0,.61,0,.91a20.21,20.21,0,0,0,.67,5.2,1.29,1.29,0,0,0,1.25,1,1.24,1.24,0,0,0,.33,0,1.3,1.3,0,0,0,.93-1.59A17.72,17.72,0,0,1,3.6,58.05Z"/><path class="cls-3" d="M9,45.27A1.3,1.3,0,1,0,7.18,43.4a20.36,20.36,0,0,0-3.71,4.9A1.29,1.29,0,0,0,4,50.06a1.25,1.25,0,0,0,.62.16,1.28,1.28,0,0,0,1.14-.68A17.77,17.77,0,0,1,9,45.27Z"/><path class="cls-3" d="M24.6,75.92H22.27a1,1,0,0,0-.3,0l-.29,0a11.7,11.7,0,0,1-2.13-.1,1.3,1.3,0,0,0-.28,2.59,14.44,14.44,0,0,0,2.54.1l.19,0h2.6a1.3,1.3,0,0,0,0-2.6Z"/><path class="cls-3" d="M37.56,75.92H32.38a1.3,1.3,0,0,0,0,2.6h5.18a1.3,1.3,0,0,0,0-2.6Z"/><path class="cls-3" d="M50.53,75.92H45.34a1.3,1.3,0,0,0,0,2.6h5.19a1.3,1.3,0,0,0,0-2.6Z"/><path class="cls-3" d="M63.49,75.92H58.31a1.3,1.3,0,0,0,0,2.6h5.18a1.3,1.3,0,1,0,0-2.6Z"/><path class="cls-3" d="M76.21,75.68a14.3,14.3,0,0,1-2.36.23H71.27a1.3,1.3,0,0,0,0,2.6H74a15.78,15.78,0,0,0,2.65-.28,1.3,1.3,0,1,0-.48-2.55Z"/><path class="cls-3" d="M87.5,53.79a1.3,1.3,0,0,0-2.22,1.37,13.39,13.39,0,0,1,1.85,4.9,1.31,1.31,0,0,0,1.28,1.09l.22,0a1.29,1.29,0,0,0,1.06-1.49A16,16,0,0,0,87.5,53.79Z"/><path class="cls-3" d="M87.87,67.14a1.3,1.3,0,0,0-1.71.66,13.59,13.59,0,0,1-3,4.3,1.31,1.31,0,0,0,0,1.84,1.33,1.33,0,0,0,.94.39A1.29,1.29,0,0,0,85,74a16.07,16.07,0,0,0,3.58-5.11A1.3,1.3,0,0,0,87.87,67.14Z"/><path class="cls-3" d="M45.46,40a12,12,0,1,0,12,12A12,12,0,0,0,45.46,40Zm-9.4,12a9.4,9.4,0,0,1,9.4-9.39,9.29,9.29,0,0,1,5.66,1.92L38,57.65A9.34,9.34,0,0,1,36.06,52Zm9.4,9.4a9.34,9.34,0,0,1-5.67-1.92L52.93,46.32A9.31,9.31,0,0,1,54.85,52,9.41,9.41,0,0,1,45.46,61.38Z"/><rect class="cls-4" width="96" height="96"/></g></svg>