<svg xmlns="http://www.w3.org/2000/svg" width="96" height="96" viewBox="0 0 96 96"><defs><style>.cls-1{fill:none;}.cls-2{opacity:0.15;}.cls-3{fill:#ffe58d;}.cls-4{fill:#ffea0d;}.cls-5{opacity:0.58;}.cls-6{fill:#ffdf64;}</style></defs><title>02-clear</title><g id="Forecast_Icons_Outlined" data-name="Forecast Icons Outlined"><rect class="cls-1" x="1.15" width="96" height="96"/><g class="cls-2"><circle class="cls-3" cx="43.44" cy="42.81" r="41.51"/></g><g class="cls-2"><path class="cls-4" d="M79.71,63A72.39,72.39,0,0,1,42,46,183.73,183.73,0,0,0,7.43,22.21,41.5,41.5,0,1,0,79.71,63Z"/></g><circle class="cls-3" cx="43.44" cy="42.81" r="27.74"/><g class="cls-5"><path class="cls-6" d="M15.7,42.81a27.73,27.73,0,0,0,54,8.88C57.82,49.9,45.22,45.25,34.76,35c-3.46-3.37-7.34-7.4-11.33-11.41A27.61,27.61,0,0,0,15.7,42.81Z"/></g></g></svg>