<svg xmlns="http://www.w3.org/2000/svg" width="96" height="96" viewBox="0 0 96 96"><defs><style>.cls-1{fill:none;}.cls-2{fill:#fffbf1;}.cls-2,.cls-4{fill-rule:evenodd;}.cls-3{opacity:0.85;}.cls-4{fill:#eaeaea;}.cls-5{fill:#c9c9c9;}</style></defs><title>03-partly-cloudy-night</title><g id="Forecast_Icons_Outlined" data-name="Forecast Icons Outlined"><rect class="cls-1" width="96" height="96"/><path class="cls-2" d="M46.74,9.42a27.74,27.74,0,1,1,0,39.23,27.76,27.76,0,0,1,0-39.23"/><g class="cls-3"><path class="cls-4" d="M68.65,1.41a40.45,40.45,0,0,0,1.67,55.05,27.71,27.71,0,0,0-1.67-55Z"/></g><path class="cls-5" d="M87.61,62.3A14.9,14.9,0,0,0,76.55,47.91a10.47,10.47,0,0,0,.87-4.19,10.52,10.52,0,0,0-14-10.07,23.69,23.69,0,0,0-46.48,5.57,19.16,19.16,0,0,0,3.53,38c.18,0,.35,0,.53,0v0H72.87A14.91,14.91,0,0,0,87.61,62.3Z"/></g></svg>