<svg xmlns="http://www.w3.org/2000/svg" width="96" height="96" viewBox="0 0 96 96"><defs><style>.cls-1{fill:none;}.cls-2{fill:#ffe58d;}.cls-3{opacity:0.58;}.cls-4{fill:#ffdf64;}.cls-5{fill:#efefef;}</style></defs><title>03-partly-cloudy</title><g id="Forecast_Icons_Outlined" data-name="Forecast Icons Outlined"><rect class="cls-1" width="96" height="96"/><circle class="cls-2" cx="66.36" cy="29.04" r="27.74"/><g class="cls-3"><path class="cls-4" d="M38.62,29a27.73,27.73,0,0,0,54,8.88c-11.88-1.79-24.47-6.44-34.94-16.65-3.46-3.38-7.34-7.4-11.33-11.41A27.61,27.61,0,0,0,38.62,29Z"/></g><path class="cls-5" d="M87.61,62.3A14.9,14.9,0,0,0,76.55,47.91a10.47,10.47,0,0,0,.87-4.19,10.52,10.52,0,0,0-14-10.07,23.69,23.69,0,0,0-46.48,5.57,19.16,19.16,0,0,0,3.53,38c.18,0,.35,0,.53,0v0H72.87A14.91,14.91,0,0,0,87.61,62.3Z"/></g></svg>