<svg xmlns="http://www.w3.org/2000/svg" width="96" height="96" viewBox="0 0 96 96"><defs><style>.cls-1{fill:none;}.cls-2{fill:#c8c8c8;}.cls-3{opacity:0.15;}.cls-4{fill:#9d9d9d;}.cls-5{fill:#f9f9fa;}</style></defs><title>04-cloudy-rn</title><g id="Forecast_Icons_Outlined" data-name="Forecast Icons Outlined"><rect class="cls-1" width="96" height="96"/><circle class="cls-2" cx="80.75" cy="40.28" r="13.95"/><circle class="cls-2" cx="64.33" cy="29.05" r="20.64"/><g class="cls-3"><path class="cls-4" d="M91.1,49.57c-1.86-8.47-7.38-17-18.9-23.2-7.14-3.81-12.23-9.77-16.7-16A20.62,20.62,0,0,0,69.87,48.92a13.79,13.79,0,0,0,21.23.65Z"/></g><path class="cls-5" d="M88.37,62.3A14.91,14.91,0,0,0,77.31,47.91,10.56,10.56,0,0,0,64.17,33.65a23.69,23.69,0,0,0-46.48,5.57,19.16,19.16,0,0,0,3.53,38c.18,0,.36,0,.54,0v0H73.62A14.91,14.91,0,0,0,88.37,62.3Z"/></g></svg>