<svg xmlns="http://www.w3.org/2000/svg" width="96" height="96" viewBox="0 0 96 96"><defs><style>.cls-1{fill:#ffe58d;}.cls-2{opacity:0.58;}.cls-3{fill:#ffdf64;}.cls-4{opacity:0.6;}.cls-5{fill:#f9f9fa;}.cls-6{fill:none;}</style></defs><title>05-mostly-sunny-rn</title><g id="Forecast_Icons_Outlined" data-name="Forecast Icons Outlined"><circle class="cls-1" cx="54.65" cy="29.04" r="27.74"/><g class="cls-2"><path class="cls-3" d="M26.91,29a27.73,27.73,0,0,0,54,8.88C69,36.13,56.44,31.48,46,21.27c-3.46-3.38-7.34-7.4-11.33-11.41A27.61,27.61,0,0,0,26.91,29Z"/></g><g class="cls-4"><path class="cls-5" d="M88,52.09H62.69a2.6,2.6,0,1,1,0-5.2H88a2.6,2.6,0,1,1,0,5.2Z"/></g><path class="cls-5" d="M80.21,57.29H64.48a10.69,10.69,0,0,0,1.6-5.63A10.83,10.83,0,0,0,55.24,40.83a10.69,10.69,0,0,0-5.16,1.31,8.6,8.6,0,0,0-14.42-5.91,14.46,14.46,0,0,0-26,10.83c-.2,0-.41,0-.62,0A7.73,7.73,0,0,0,9,62.49h14.9a2.6,2.6,0,1,1,0,5.2H19.61a2.6,2.6,0,0,0,0,5.2H58.05a2.6,2.6,0,0,0,0-5.2H54.32a2.6,2.6,0,0,1,0-5.2h25.9a2.6,2.6,0,1,0,0-5.2Z"/><g class="cls-4"><path class="cls-5" d="M9.23,72.89H4.8a2.6,2.6,0,1,1,0-5.2H9.23a2.6,2.6,0,0,1,0,5.2Z"/></g><g class="cls-4"><path class="cls-5" d="M72.37,72.89h-5.3a2.6,2.6,0,0,1,0-5.2h5.3a2.6,2.6,0,0,1,0,5.2Z"/></g><g class="cls-4"><path class="cls-5" d="M91.88,72.89H81.4a2.6,2.6,0,0,1,0-5.2H91.88a2.6,2.6,0,0,1,0,5.2Z"/></g><g class="cls-4"><path class="cls-5" d="M74.29,83.29H44.53a2.6,2.6,0,0,1,0-5.2H74.29a2.6,2.6,0,0,1,0,5.2Z"/></g><g class="cls-4"><path class="cls-5" d="M34.15,83.29H24.5a2.6,2.6,0,0,1,0-5.2h9.65a2.6,2.6,0,0,1,0,5.2Z"/></g><g class="cls-4"><path class="cls-5" d="M84.75,83.29h-1a2.6,2.6,0,0,1,0-5.2h1a2.6,2.6,0,0,1,0,5.2Z"/></g><rect class="cls-6" width="96" height="96"/></g></svg>