<svg xmlns="http://www.w3.org/2000/svg" width="96" height="96" viewBox="0 0 96 96"><defs><style>.cls-1{fill:none;}.cls-2{opacity:0.2;}.cls-3{fill:#eaeaea;}.cls-3,.cls-5{fill-rule:evenodd;}.cls-4{opacity:0.6;}.cls-5{fill:#fffbf1;}.cls-6{opacity:0.85;}.cls-7{fill:#dbd5ca;}</style></defs><title>06-haze-night</title><g id="Forecast_Icons_Outlined" data-name="Forecast Icons Outlined"><rect class="cls-1" width="96" height="96"/><g class="cls-2"><path class="cls-3" d="M14.08,13.45a41.51,41.51,0,1,1,0,58.71,41.52,41.52,0,0,1,0-58.71"/></g><g class="cls-4"><path class="cls-5" d="M24.2,23.19a27.74,27.74,0,1,1,0,39.23,27.75,27.75,0,0,1,0-39.23"/><g class="cls-6"><path class="cls-3" d="M46.1,15.18a40.45,40.45,0,0,0,1.67,55.05,27.71,27.71,0,0,0-1.67-55Z"/></g></g><g class="cls-4"><path class="cls-7" d="M79.67,45.4H68a2.6,2.6,0,1,1,0-5.2H79.67a2.6,2.6,0,0,1,0,5.2Z"/></g><g class="cls-4"><path class="cls-7" d="M52.59,24.6H21.78a2.6,2.6,0,0,1,0-5.2H52.59a2.6,2.6,0,0,1,0,5.2Z"/></g><g class="cls-4"><path class="cls-7" d="M70.91,66.2H41.07a2.6,2.6,0,0,1,0-5.2H70.91a2.6,2.6,0,1,1,0,5.2Z"/></g><path class="cls-7" d="M70.59,29.8H36.44a2.6,2.6,0,1,0,0,5.2h4a2.6,2.6,0,0,1,0,5.2H10.12a2.6,2.6,0,0,0,0,5.2h9.63a2.6,2.6,0,0,1,0,5.2H16.59a2.6,2.6,0,0,0,0,5.2H42.05a2.6,2.6,0,0,0,0-5.2H40.59a2.6,2.6,0,0,1,0-5.2h17a2.6,2.6,0,1,0,0-5.2H51.13a2.6,2.6,0,0,1,0-5.2H70.59a2.6,2.6,0,0,0,0-5.2Z"/><path class="cls-7" d="M15.36,35h10.7a2.6,2.6,0,1,0,0-5.2H15.36a2.6,2.6,0,0,0,0,5.2Z"/><path class="cls-7" d="M60.21,50.6H52.42a2.6,2.6,0,0,0,0,5.2h7.79a2.6,2.6,0,1,0,0-5.2Z"/></g></svg>