<svg xmlns="http://www.w3.org/2000/svg" width="96" height="96" viewBox="0 0 96 96"><defs><style>.cls-1{fill:none;}.cls-2{opacity:0.15;}.cls-3{fill:#e6e58d;}.cls-4{opacity:0.2;}.cls-5{fill:#fadfa2;}.cls-6{opacity:0.4;}.cls-7{opacity:0.6;}.cls-8{fill:#ccb995;}</style></defs><title>06-haze</title><g id="Forecast_Icons_Outlined" data-name="Forecast Icons Outlined"><rect class="cls-1" width="96" height="96"/><g class="cls-2"><circle class="cls-3" cx="43.44" cy="42.81" r="41.51"/></g><g class="cls-4"><circle class="cls-5" cx="43.81" cy="42.81" r="27.74"/></g><g class="cls-6"><path class="cls-5" d="M16.07,42.81a27.74,27.74,0,1,1,55.48,0Z"/></g><g class="cls-7"><path class="cls-8" d="M79.67,45.4H68a2.6,2.6,0,1,1,0-5.2H79.67a2.6,2.6,0,0,1,0,5.2Z"/></g><g class="cls-7"><path class="cls-8" d="M52.59,24.6H21.78a2.6,2.6,0,0,1,0-5.2H52.59a2.6,2.6,0,0,1,0,5.2Z"/></g><g class="cls-7"><path class="cls-8" d="M70.91,66.2H41.07a2.6,2.6,0,0,1,0-5.2H70.91a2.6,2.6,0,1,1,0,5.2Z"/></g><path class="cls-8" d="M70.59,29.8H36.44a2.6,2.6,0,1,0,0,5.2h4a2.6,2.6,0,0,1,0,5.2H10.12a2.6,2.6,0,0,0,0,5.2h9.63a2.6,2.6,0,0,1,0,5.2H16.59a2.6,2.6,0,0,0,0,5.2H42.05a2.6,2.6,0,0,0,0-5.2H40.59a2.6,2.6,0,0,1,0-5.2h17a2.6,2.6,0,1,0,0-5.2H51.13a2.6,2.6,0,0,1,0-5.2H70.59a2.6,2.6,0,0,0,0-5.2Z"/><path class="cls-8" d="M15.36,35h10.7a2.6,2.6,0,1,0,0-5.2H15.36a2.6,2.6,0,0,0,0,5.2Z"/><path class="cls-8" d="M60.21,50.6H52.42a2.6,2.6,0,0,0,0,5.2h7.79a2.6,2.6,0,1,0,0-5.2Z"/></g></svg>