<svg xmlns="http://www.w3.org/2000/svg" width="96" height="96" viewBox="0 0 96 96"><defs><style>.cls-1{fill:none;}.cls-2{fill:#5eb4e9;}.cls-3{opacity:0.6;}.cls-4{fill:#a6a6a6;}</style></defs><title>08-light-rain-night</title><g id="Forecast_Icons_Outlined" data-name="Forecast Icons Outlined"><rect class="cls-1" width="96" height="96"/><path class="cls-2" d="M29.24,85.22a2.6,2.6,0,0,1-2.6-2.6V59a2.6,2.6,0,0,1,5.2,0V82.62A2.59,2.59,0,0,1,29.24,85.22Z"/><g class="cls-3"><path class="cls-2" d="M39.62,78.88a2.6,2.6,0,0,1-2.6-2.6V66.12a2.6,2.6,0,1,1,5.2,0V76.28A2.59,2.59,0,0,1,39.62,78.88Z"/></g><g class="cls-3"><path class="cls-2" d="M18.86,74.77a2.6,2.6,0,0,1-2.6-2.6V58.33a2.6,2.6,0,0,1,5.2,0V72.17A2.59,2.59,0,0,1,18.86,74.77Z"/></g><g class="cls-3"><path class="cls-2" d="M18.86,85.18a2.61,2.61,0,1,1,2.6-2.63v0A2.6,2.6,0,0,1,18.86,85.18Z"/></g><path class="cls-4" d="M74.91,47.58a12.71,12.71,0,0,0-9.43-12.27,9.08,9.08,0,0,0-8.35-12.67,9,9,0,0,0-2.85.5,20.2,20.2,0,0,0-39.64,4.75,16.34,16.34,0,0,0,3,32.41l.45,0v0H62.34A12.7,12.7,0,0,0,74.91,47.58Z"/></g></svg>