<svg xmlns="http://www.w3.org/2000/svg" width="96" height="96" viewBox="0 0 96 96"><defs><style>.cls-1{opacity:0.1;}.cls-2{opacity:0.2;}.cls-3{fill:#a2bcd1;}.cls-4{fill:#b9d371;}.cls-5{fill:none;}</style></defs><title>09-wind-rn</title><g id="Forecast_Icons_Outlined" data-name="Forecast Icons Outlined"><g class="cls-1"><path d="M74.09,45.42H57.44a2.6,2.6,0,1,1,0-5.2H74.09a5,5,0,0,0,3.56-8.6,2.6,2.6,0,0,1,3.68-3.68,10.24,10.24,0,0,1-7.24,17.48Z"/></g><g class="cls-2"><path d="M64.77,68.42A2.6,2.6,0,0,1,62.93,64a4.79,4.79,0,0,0-3.39-8.18H46.27a2.6,2.6,0,0,1,0-5.2H59.54A10,10,0,0,1,66.6,67.66,2.56,2.56,0,0,1,64.77,68.42Z"/></g><path class="cls-3" d="M35.89,55.8H3.46a2.6,2.6,0,1,1,0-5.2H35.89a2.6,2.6,0,0,1,0,5.2Z"/><g class="cls-2"><path d="M47.07,45.42H31.82a2.6,2.6,0,0,1,0-5.2H47.07a2.6,2.6,0,0,1,0,5.2Z"/></g><g class="cls-1"><path d="M51.88,71.53a2.6,2.6,0,0,1-2.6-2.6,2.76,2.76,0,0,0-2.75-2.76H12.88a2.6,2.6,0,0,1,0-5.2H46.53a8,8,0,0,1,7.95,8A2.61,2.61,0,0,1,51.88,71.53Z"/></g><g class="cls-2"><path d="M63.57,35H38.67a2.6,2.6,0,1,1,0-5.2h24.9a2.75,2.75,0,0,0,1.94-4.7,2.8,2.8,0,0,0-3.32-.43,2.6,2.6,0,1,1-2.62-4.5,8,8,0,0,1,4-1.07,8,8,0,0,1,0,15.9Z"/></g><circle class="cls-4" cx="76.13" cy="53.2" r="2.6"/><circle class="cls-4" cx="26.61" cy="32.44" r="2.6"/><path class="cls-3" d="M21.44,45.42H11.07a2.6,2.6,0,0,1,0-5.2H21.44a2.6,2.6,0,0,1,0,5.2Z"/><rect class="cls-5" y="0.01" width="96" height="96"/></g></svg>