<svg xmlns="http://www.w3.org/2000/svg" width="96" height="96" viewBox="0 0 96 96"><defs><style>.cls-1{fill:none;}.cls-2{opacity:0.15;}.cls-3{fill:#c4cdca;}.cls-4{opacity:0.2;}.cls-5{fill:#ffe58d;}.cls-6{opacity:0.4;}.cls-7{opacity:0.6;}.cls-8{fill:#bac5d7;}</style></defs><title>10-fog</title><g id="Forecast_Icons_Outlined" data-name="Forecast Icons Outlined"><rect class="cls-1" width="96" height="96"/><g class="cls-2"><circle class="cls-3" cx="43.44" cy="42.81" r="41.51"/></g><g class="cls-4"><circle class="cls-5" cx="43.44" cy="42.81" r="27.74"/></g><g class="cls-6"><path class="cls-5" d="M15.7,42.81a27.74,27.74,0,0,1,55.48,0Z"/></g><g class="cls-7"><path class="cls-8" d="M29,24.61h-8.1a2.6,2.6,0,0,1,0-5.2H29a2.6,2.6,0,0,1,0,5.2Z"/></g><g class="cls-7"><path class="cls-8" d="M65.51,66.21H42.81a2.6,2.6,0,0,1,0-5.2h22.7a2.6,2.6,0,0,1,0,5.2Z"/></g><g class="cls-7"><path class="cls-8" d="M35.84,76.61H23.67a2.6,2.6,0,1,1,0-5.2H35.84a2.6,2.6,0,0,1,0,5.2Z"/></g><path class="cls-8" d="M68.92,35h4.21a2.6,2.6,0,1,0,0-5.2H68.92a2.6,2.6,0,1,0,0,5.2Z"/><path class="cls-8" d="M12.72,35H36.65a2.6,2.6,0,1,0,0-5.2H12.72a2.6,2.6,0,0,0,0,5.2Z"/><path class="cls-8" d="M36.81,24.61h9.73a2.6,2.6,0,1,1,0,5.2v.05A2.6,2.6,0,0,0,47,35H58.54a2.6,2.6,0,1,0,0-5.2h-.65a2.6,2.6,0,0,1,0-5.2h4.7a2.6,2.6,0,0,0,0-5.2H36.81a2.6,2.6,0,0,0,0,5.2Z"/><path class="cls-8" d="M62.76,50.61H59.19a2.6,2.6,0,0,1,0-5.2H73a2.6,2.6,0,0,0,0-5.2H38.29a2.6,2.6,0,0,0,0,5.2h2.82a2.6,2.6,0,0,1,0,5.2H26.43a2.6,2.6,0,0,1,0-5.2h1.79a2.6,2.6,0,0,0,0-5.2H7.48a2.6,2.6,0,0,0,0,5.2H9.33a2.6,2.6,0,0,1,0,5.2H2.76a2.6,2.6,0,0,0,0,5.2H16.38a2.6,2.6,0,1,1,0,5.2h-.65a2.6,2.6,0,0,0,0,5.2H32.92a2.6,2.6,0,0,0,0-5.2H29.75a2.6,2.6,0,0,1,0-5.2h33a2.6,2.6,0,0,0,0-5.2Z"/><path class="cls-8" d="M84.16,50.61h-11a2.6,2.6,0,1,0,0,5.2h11a2.6,2.6,0,1,0,0-5.2Z"/></g></svg>