<svg xmlns="http://www.w3.org/2000/svg" width="96" height="96" viewBox="0 0 96 96"><defs><style>.cls-1{opacity:0.2;}.cls-2{fill:#eaeaea;}.cls-2,.cls-4{fill-rule:evenodd;}.cls-3{opacity:0.6;}.cls-4{fill:#fffbf1;}.cls-5{opacity:0.85;}.cls-6{fill:none;}.cls-7{fill:#dbe0e8;}.cls-8{opacity:0.9;}</style></defs><title>10-fog-night-rn</title><g id="Forecast_Icons_Outlined" data-name="Forecast Icons Outlined"><g class="cls-1"><path class="cls-2" d="M14.08,13.45a41.51,41.51,0,1,1,0,58.71,41.52,41.52,0,0,1,0-58.71"/></g><g class="cls-3"><path class="cls-4" d="M23.82,23.19a27.74,27.74,0,1,1,0,39.23,27.75,27.75,0,0,1,0-39.23"/><g class="cls-5"><path class="cls-2" d="M45.73,15.18A40.45,40.45,0,0,0,47.4,70.23a27.71,27.71,0,0,0-1.67-55Z"/></g></g><rect class="cls-6" width="96" height="96"/><g class="cls-3"><path class="cls-7" d="M29,24.61h-8.1a2.6,2.6,0,0,1,0-5.2H29a2.6,2.6,0,0,1,0,5.2Z"/></g><g class="cls-3"><path class="cls-7" d="M65.51,66.21H42.81a2.6,2.6,0,0,1,0-5.2h22.7a2.6,2.6,0,0,1,0,5.2Z"/></g><g class="cls-3"><path class="cls-7" d="M35.84,76.61H23.67a2.6,2.6,0,1,1,0-5.2H35.84a2.6,2.6,0,0,1,0,5.2Z"/></g><g class="cls-8"><path class="cls-7" d="M68.92,35h4.21a2.6,2.6,0,1,0,0-5.2H68.92a2.6,2.6,0,1,0,0,5.2Z"/><path class="cls-7" d="M12.72,35H36.65a2.6,2.6,0,1,0,0-5.2H12.72a2.6,2.6,0,0,0,0,5.2Z"/><path class="cls-7" d="M36.81,24.61h9.73a2.6,2.6,0,1,1,0,5.2v.05A2.6,2.6,0,0,0,47,35H58.54a2.6,2.6,0,1,0,0-5.2h-.65a2.6,2.6,0,0,1,0-5.2h4.7a2.6,2.6,0,0,0,0-5.2H36.81a2.6,2.6,0,0,0,0,5.2Z"/><path class="cls-7" d="M62.76,50.61H59.19a2.6,2.6,0,0,1,0-5.2H73a2.6,2.6,0,0,0,0-5.2H38.29a2.6,2.6,0,0,0,0,5.2h2.82a2.6,2.6,0,0,1,0,5.2H26.43a2.6,2.6,0,0,1,0-5.2h1.79a2.6,2.6,0,0,0,0-5.2H7.48a2.6,2.6,0,0,0,0,5.2H9.33a2.6,2.6,0,0,1,0,5.2H2.76a2.6,2.6,0,0,0,0,5.2H16.38a2.6,2.6,0,1,1,0,5.2h-.65a2.6,2.6,0,0,0,0,5.2H32.92a2.6,2.6,0,0,0,0-5.2H29.75a2.6,2.6,0,0,1,0-5.2h33a2.6,2.6,0,0,0,0-5.2Z"/><path class="cls-7" d="M84.16,50.61h-11a2.6,2.6,0,1,0,0,5.2h11a2.6,2.6,0,1,0,0-5.2Z"/></g></g></svg>