<svg xmlns="http://www.w3.org/2000/svg" width="96" height="96" viewBox="0 0 96 96"><defs><style>.cls-1{fill:none;}.cls-2{opacity:0.6;}.cls-3{fill:#5eb4e9;}.cls-4{fill:#ffe58d;}.cls-5{fill:#ffdf64;}.cls-6{fill:#c8c8c8;}</style></defs><title>11-showers</title><g id="Forecast_Icons_Outlined" data-name="Forecast Icons Outlined"><rect class="cls-1" width="96" height="96"/><g class="cls-2"><path class="cls-3" d="M27.85,89.17a2.59,2.59,0,0,1-2.6-2.6V75.84a2.6,2.6,0,1,1,5.2,0V86.57A2.6,2.6,0,0,1,27.85,89.17Z"/></g><g class="cls-2"><path class="cls-3" d="M27.85,68.25a2.6,2.6,0,0,1-2.6-2.6V57.32a2.6,2.6,0,1,1,5.2,0v8.33A2.61,2.61,0,0,1,27.85,68.25Z"/></g><path class="cls-3" d="M38.22,85a2.61,2.61,0,0,1-2.6-2.6V59.7a2.6,2.6,0,0,1,5.2,0V82.41A2.6,2.6,0,0,1,38.22,85Z"/><path class="cls-3" d="M48.6,81.92a2.6,2.6,0,0,1-2.6-2.6v-.48a2.6,2.6,0,1,1,5.2,0v.48A2.59,2.59,0,0,1,48.6,81.92Z"/><path class="cls-3" d="M48.6,71.06a2.6,2.6,0,0,1-2.6-2.6v-7a2.6,2.6,0,0,1,5.2,0v7A2.59,2.59,0,0,1,48.6,71.06Z"/><g class="cls-2"><path class="cls-3" d="M17.47,79.17a2.6,2.6,0,0,1-2.6-2.6V55.49a2.6,2.6,0,0,1,5.2,0V76.57A2.61,2.61,0,0,1,17.47,79.17Z"/></g><path class="cls-3" d="M17.47,89.54a2.21,2.21,0,0,1-.51-.05,2.06,2.06,0,0,1-.48-.15A2,2,0,0,1,16,89.1a2.08,2.08,0,0,1-.4-.32,2.37,2.37,0,0,1-.32-.39,2.46,2.46,0,0,1-.24-.45,2.13,2.13,0,0,1-.15-.49,2.53,2.53,0,0,1,.15-1.5,2,2,0,0,1,.24-.45,2.44,2.44,0,0,1,.32-.4,2.71,2.71,0,0,1,3.68,0,2.44,2.44,0,0,1,.32.4,3.21,3.21,0,0,1,.24.45,2.21,2.21,0,0,1,.15.48,2.63,2.63,0,0,1,0,1,2.13,2.13,0,0,1-.15.49,3.28,3.28,0,0,1-.24.45,2.37,2.37,0,0,1-.32.39,2.44,2.44,0,0,1-.4.32,2,2,0,0,1-.45.24,2.06,2.06,0,0,1-.48.15A2.21,2.21,0,0,1,17.47,89.54Z"/><g class="cls-2"><path class="cls-3" d="M48.6,92.46a2.6,2.6,0,0,1-2.6-2.6V89.7a2.6,2.6,0,0,1,5.2,0v.16A2.59,2.59,0,0,1,48.6,92.46Z"/></g><circle class="cls-4" cx="62.04" cy="21.25" r="20.76"/><path class="cls-5" d="M41.29,21.25a20.74,20.74,0,0,0,40.4,6.65c-8.89-1.34-18.31-4.82-26.14-12.46C53,12.92,50.06,9.9,47.07,6.9A20.65,20.65,0,0,0,41.29,21.25Z"/><path class="cls-6" d="M74.91,47.58a12.71,12.71,0,0,0-9.43-12.27,9.08,9.08,0,0,0-8.35-12.67,9,9,0,0,0-2.85.5,20.2,20.2,0,0,0-39.64,4.75,16.34,16.34,0,0,0,3,32.41l.45,0v0H62.34A12.7,12.7,0,0,0,74.91,47.58Z"/></g></svg>