<svg xmlns="http://www.w3.org/2000/svg" width="96" height="96" viewBox="0 0 96 96"><defs><style>.cls-1{fill:none;}.cls-2{opacity:0.6;}.cls-3{fill:#5eb4e9;}.cls-4{fill:#b5b5b5;}.cls-5{opacity:0.15;}.cls-6{fill:#9d9d9d;}.cls-7{fill:#999;}</style></defs><title>12-rain-rn</title><g id="Forecast_Icons_Outlined" data-name="Forecast Icons Outlined"><rect class="cls-1" width="96" height="96"/><g class="cls-2"><path class="cls-3" d="M24.39,62.32a2.58,2.58,0,0,1-2.6-2.57v-.06a2.6,2.6,0,1,1,2.6,2.63Z"/></g><path class="cls-3" d="M24.39,87.7a2.61,2.61,0,0,1-2.6-2.6v-15a2.6,2.6,0,0,1,5.2,0v15A2.6,2.6,0,0,1,24.39,87.7Z"/><g class="cls-2"><path class="cls-3" d="M34.77,70.72a2.59,2.59,0,0,1-2.6-2.6V45.31a2.6,2.6,0,1,1,5.2,0V68.12A2.59,2.59,0,0,1,34.77,70.72Z"/></g><path class="cls-3" d="M34.77,86.62a2.6,2.6,0,0,1-2.6-2.6V78.5a2.6,2.6,0,1,1,5.2,0V84A2.6,2.6,0,0,1,34.77,86.62Z"/><path class="cls-3" d="M45.15,66.4a2.59,2.59,0,0,1-2.6-2.6V45.31a2.6,2.6,0,0,1,5.2,0V63.8A2.6,2.6,0,0,1,45.15,66.4Z"/><g class="cls-2"><path class="cls-3" d="M45.15,95.26a2.59,2.59,0,0,1-2.6-2.6V74.18a2.6,2.6,0,1,1,5.2,0V92.66A2.6,2.6,0,0,1,45.15,95.26Z"/></g><path class="cls-3" d="M55.53,75.81a2.6,2.6,0,0,1-2.6-2.6V45.31a2.6,2.6,0,0,1,5.2,0v27.9A2.61,2.61,0,0,1,55.53,75.81Z"/><g class="cls-2"><path class="cls-3" d="M55.53,92a2.59,2.59,0,0,1-2.6-2.6V83.58a2.6,2.6,0,0,1,5.2,0v5.84A2.6,2.6,0,0,1,55.53,92Z"/></g><path class="cls-3" d="M65.91,88.89a2.6,2.6,0,0,1-2.6-2.6v-41a2.6,2.6,0,1,1,5.19,0v41A2.6,2.6,0,0,1,65.91,88.89Z"/><path class="cls-3" d="M14,81.54a2.61,2.61,0,0,1-2.6-2.6V45.31a2.6,2.6,0,0,1,5.2,0V78.94A2.6,2.6,0,0,1,14,81.54Z"/><path class="cls-4" d="M71.67,29.66A12.55,12.55,0,0,0,59.88,12.73c-.28,0-.55,0-.82,0a16.54,16.54,0,1,0-31.53,10V48.46H67.62a9.84,9.84,0,0,0,4-18.8Z"/><g class="cls-5"><path class="cls-6" d="M26.74,16.87c0,.26,0,.52,0,.78a16.54,16.54,0,0,0,.83,5.15V48.46H63.84c1.68-4.35,1.45-9.69-2.31-16.19C51.18,14.41,36,12.7,26.74,16.87Z"/></g><path class="cls-7" d="M60.42,44.07a10.17,10.17,0,0,0-7.54-9.82A7.26,7.26,0,0,0,46.2,24.12a7.14,7.14,0,0,0-2.28.4,16.17,16.17,0,0,0-31.72,3.8,13.08,13.08,0,0,0,2.41,25.93l.36,0v0H50.36A10.17,10.17,0,0,0,60.42,44.07Z"/></g></svg>