<svg xmlns="http://www.w3.org/2000/svg" width="96" height="96" viewBox="0 0 96 96"><defs><style>.cls-1{fill:none;}.cls-2{opacity:0.1;}.cls-3{fill:#cfb344;}.cls-4{opacity:0.48;}.cls-5{fill:#878787;}.cls-6{fill:#bfb293;}.cls-7{opacity:0.6;}.cls-8{fill:#d6cdaf;}.cls-9{fill:#ccb281;}</style></defs><title>13-dust-night</title><g id="Forecast_Icons_Outlined" data-name="Forecast Icons Outlined"><rect class="cls-1" width="96" height="96"/><g class="cls-2"><circle class="cls-3" cx="53.5" cy="42.81" r="41.51"/></g><g class="cls-4"><path class="cls-5" d="M72.46,42.9h-14a2.6,2.6,0,1,1,0-5.2h14A5,5,0,0,0,76,29.09a2.6,2.6,0,0,1,3.68-3.67A10.24,10.24,0,0,1,72.46,42.9Z"/></g><path class="cls-6" d="M63.14,65.9a2.56,2.56,0,0,1-1.84-.76,2.6,2.6,0,0,1,0-3.68,4.79,4.79,0,0,0-3.39-8.18H49.3a2.6,2.6,0,1,1,0-5.2h8.61A10,10,0,0,1,65,65.14,2.56,2.56,0,0,1,63.14,65.9Z"/><g class="cls-4"><path class="cls-5" d="M27.38,63.65H22.62a2.6,2.6,0,0,1,0-5.2h4.76a2.6,2.6,0,1,1,0,5.2Z"/></g><g class="cls-7"><path class="cls-8" d="M28.15,53.28h-2.5a2.6,2.6,0,1,1,0-5.2h2.5a2.6,2.6,0,0,1,0,5.2Z"/></g><g class="cls-7"><path class="cls-8" d="M15.27,53.28H3.16a2.6,2.6,0,0,1,0-5.2H15.27a2.6,2.6,0,0,1,0,5.2Z"/></g><path class="cls-6" d="M48,42.9H35.38a2.6,2.6,0,1,1,0-5.2H48a2.6,2.6,0,1,1,0,5.2Z"/><g class="cls-4"><path class="cls-5" d="M52.84,69a2.61,2.61,0,0,1-2.6-2.6,2.76,2.76,0,0,0-2.75-2.76H37.76a2.6,2.6,0,1,1,0-5.2h9.73a8,8,0,0,1,7.95,8A2.6,2.6,0,0,1,52.84,69Z"/></g><path class="cls-6" d="M61.93,32.52H41.71a2.6,2.6,0,1,1,0-5.2H61.93a2.75,2.75,0,0,0,2-4.7,2.79,2.79,0,0,0-3.32-.43,2.6,2.6,0,0,1-2.62-4.5,8,8,0,0,1,4-1.07,8,8,0,1,1,0,15.9Z"/><circle class="cls-9" cx="74.5" cy="50.68" r="2.6"/><circle class="cls-9" cx="38.73" cy="50.68" r="2.6"/><g class="cls-4"><circle class="cls-5" cx="12.24" cy="61.05" r="2.6"/></g><circle class="cls-9" cx="20.68" cy="29.92" r="2.6"/><circle class="cls-9" cx="31.05" cy="29.92" r="2.6"/><path class="cls-6" d="M25,42.9H17.65a2.6,2.6,0,0,1,0-5.2H25a2.6,2.6,0,1,1,0,5.2Z"/><g class="cls-7"><path class="cls-8" d="M7.27,42.9H5.11a2.6,2.6,0,0,1,0-5.2H7.27a2.6,2.6,0,1,1,0,5.2Z"/></g></g></svg>