<svg xmlns="http://www.w3.org/2000/svg" width="96" height="96" viewBox="0 0 96 96"><defs><style>.cls-1{fill:#fff;}.cls-2{fill:#ced7dc;}.cls-3{fill:none;}</style></defs><title>14-frost-rn</title><g id="Forecast_Icons_Outlined" data-name="Forecast Icons Outlined"><path class="cls-1" d="M62.21,28.8a2.6,2.6,0,0,0-3.3-1.62l-5,1.71L55.29,26a2.6,2.6,0,0,0-4.67-2.3l-3.71,7.53-6.1,2.07V23.22l6.35-6.36a2.6,2.6,0,1,0-3.67-3.67l-2.68,2.67V10.48a2.6,2.6,0,0,0-5.2,0v5.38l-2.68-2.67a2.6,2.6,0,1,0-3.67,3.67l6.35,6.36v10.1l-6.1-2.07L25.8,23.72A2.6,2.6,0,0,0,21.13,26l1.42,2.87-5-1.71a2.6,2.6,0,1,0-1.67,4.92l5,1.71L18,35.22a2.6,2.6,0,1,0,2.3,4.67l7.53-3.72,7.77,2.64V56a2.6,2.6,0,1,0,5.2,0V38.81l7.77-2.64,7.53,3.72a2.6,2.6,0,0,0,2.3-4.67l-2.87-1.41,5-1.71A2.6,2.6,0,0,0,62.21,28.8Z"/><path class="cls-2" d="M72.32,59.28H4.09a2.6,2.6,0,0,1,0-5.2H72.32a2.6,2.6,0,1,1,0,5.2Z"/><path class="cls-2" d="M63.4,69.68H13a2.6,2.6,0,1,1,0-5.2H63.4a2.6,2.6,0,1,1,0,5.2Z"/><path class="cls-2" d="M49.5,80.08H26.92a2.6,2.6,0,1,1,0-5.2H49.5a2.6,2.6,0,0,1,0,5.2Z"/><rect class="cls-3" width="96" height="96"/></g></svg>