<svg xmlns="http://www.w3.org/2000/svg" width="96" height="96" viewBox="0 0 96 96"><defs><style>.cls-1{fill:none;}.cls-2{fill:#5eb4e9;}.cls-3{opacity:0.6;}.cls-4{fill:#a6a6a6;}.cls-5{opacity:0.15;}.cls-6{fill:#787878;}.cls-7{fill:#ffe77c;}.cls-8{fill:#6d6d6d;}.cls-9{fill:#ffd413;}</style></defs><title>16-storms-night</title><g id="Forecast_Icons_Outlined" data-name="Forecast Icons Outlined"><rect class="cls-1" width="96" height="96"/><path class="cls-2" d="M41.92,84.33a2.6,2.6,0,0,1-2.6-2.6V58.05a2.6,2.6,0,0,1,5.2,0V81.73A2.59,2.59,0,0,1,41.92,84.33Z"/><path class="cls-2" d="M52.3,78a2.61,2.61,0,0,1-2.6-2.6V65.23a2.6,2.6,0,1,1,5.2,0V75.39A2.6,2.6,0,0,1,52.3,78Z"/><g class="cls-3"><path class="cls-2" d="M31.55,73.88a2.59,2.59,0,0,1-2.6-2.6V57.44a2.6,2.6,0,1,1,5.19,0V71.28A2.59,2.59,0,0,1,31.55,73.88Z"/></g><g class="cls-3"><path class="cls-2" d="M31.55,84.29a2.61,2.61,0,1,1,2.59-2.63v0A2.6,2.6,0,0,1,31.55,84.29Z"/></g><path class="cls-4" d="M78.26,32.62A13.76,13.76,0,0,0,65.33,14.05c-.31,0-.61,0-.91,0a18.15,18.15,0,1,0-34.6,11V53.26h44a10.8,10.8,0,0,0,4.44-20.64Z"/><g class="cls-5"><path class="cls-6" d="M29,18.59c0,.29,0,.57,0,.86a18.21,18.21,0,0,0,.9,5.65V53.26H69.68c1.83-4.78,1.59-10.63-2.54-17.76C55.78,15.9,39.13,14,29,18.59Z"/></g><path class="cls-7" d="M70.33,20H61.44L69.9,9.45a2.33,2.33,0,1,0-3.64-2.92L54.75,20.88a2.34,2.34,0,0,0,1.83,3.8h9.2L51.6,45.31a1,1,0,0,0,.18,1.28,1,1,0,0,0,1.34-.12l19-22.72a2.25,2.25,0,0,0,.53-1.46A2.28,2.28,0,0,0,70.33,20Z"/><path class="cls-8" d="M65.92,48.44a11.15,11.15,0,0,0-8.28-10.77,7.88,7.88,0,0,0,.65-3.14A7.88,7.88,0,0,0,47.81,27,17.74,17.74,0,0,0,13,31.16a14.35,14.35,0,0,0,2.64,28.45l.4,0v0H54.88A11.16,11.16,0,0,0,65.92,48.44Z"/><path class="cls-9" d="M27.54,46.31H18.66l8.46-10.56a2.33,2.33,0,0,0-3.64-2.92L12,47.19A2.33,2.33,0,0,0,13.79,51H23L8.82,71.62A1,1,0,0,0,9,72.9a1,1,0,0,0,1.34-.13l19-22.71a2.29,2.29,0,0,0-1.76-3.75Z"/></g></svg>