<svg xmlns="http://www.w3.org/2000/svg" width="96" height="96" viewBox="0 0 96 96"><defs><style>.cls-1{fill:#fffbf1;}.cls-1,.cls-3{fill-rule:evenodd;}.cls-2{opacity:0.85;}.cls-3{fill:#eaeaea;}.cls-4{fill:none;}.cls-5{opacity:0.6;}.cls-6{fill:#5eb4e9;}.cls-7{fill:#a6a6a6;}.cls-8{fill:#c9c9c9;}</style></defs><title>17-light-showers-night</title><g id="Forecast_Icons_Outlined" data-name="Forecast Icons Outlined"><path class="cls-1" d="M47.37,7.38a20.75,20.75,0,1,1,0,29.35,20.74,20.74,0,0,1,0-29.35"/><g class="cls-2"><path class="cls-3" d="M63.76,1.38A30.27,30.27,0,0,0,65,42.57,20.74,20.74,0,0,0,63.76,1.38Z"/></g><rect class="cls-4" y="-0.02" width="96" height="96"/><g class="cls-5"><path class="cls-6" d="M28.49,89a2.6,2.6,0,0,1-2.6-2.6V59.51a2.6,2.6,0,0,1,5.2,0V86.38A2.59,2.59,0,0,1,28.49,89Z"/></g><path class="cls-6" d="M38.87,70.38a2.6,2.6,0,0,1-2.6-2.6v-.12a2.6,2.6,0,0,1,5.2,0v.12A2.59,2.59,0,0,1,38.87,70.38Z"/><path class="cls-6" d="M38.87,81.05a2.6,2.6,0,0,1-2.6-2.6v-.29a2.6,2.6,0,0,1,5.2,0v.29A2.59,2.59,0,0,1,38.87,81.05Z"/><g class="cls-5"><path class="cls-6" d="M18.12,76.38a2.59,2.59,0,0,1-2.6-2.6V59.51a2.6,2.6,0,1,1,5.2,0V73.78A2.6,2.6,0,0,1,18.12,76.38Z"/></g><g class="cls-5"><path class="cls-6" d="M18.12,86.76A2.58,2.58,0,0,1,16.28,86a3.09,3.09,0,0,1-.33-.39,3.21,3.21,0,0,1-.24-.45,2.75,2.75,0,0,1-.14-.49,2.22,2.22,0,0,1-.06-.51,2.14,2.14,0,0,1,.06-.5,2.75,2.75,0,0,1,.14-.49,3.21,3.21,0,0,1,.24-.45,3.09,3.09,0,0,1,.33-.39,2.68,2.68,0,0,1,3.67,0,3.09,3.09,0,0,1,.33.39,3.21,3.21,0,0,1,.24.45,2.75,2.75,0,0,1,.14.49,2.14,2.14,0,0,1,.06.5,2.22,2.22,0,0,1-.06.51,2.75,2.75,0,0,1-.14.49,3.21,3.21,0,0,1-.24.45,3.08,3.08,0,0,1-.72.72,3.21,3.21,0,0,1-.45.24,2.75,2.75,0,0,1-.49.14A2.07,2.07,0,0,1,18.12,86.76Z"/></g><path class="cls-7" d="M74.91,48.37a12.71,12.71,0,0,0-9.43-12.28,9,9,0,0,0-11.2-12.16,20.2,20.2,0,0,0-39.64,4.75,16.34,16.34,0,0,0,3,32.41l.45,0v0H62.34A12.71,12.71,0,0,0,74.91,48.37Z"/><path class="cls-7" d="M74.91,48.37a12.71,12.71,0,0,0-9.43-12.28,9,9,0,0,0-11.2-12.16,20.2,20.2,0,0,0-39.64,4.75,16.34,16.34,0,0,0,3,32.41l.45,0v0H62.34A12.71,12.71,0,0,0,74.91,48.37Z"/><path class="cls-8" d="M81.41,46a9.81,9.81,0,0,0-3.27.57A13.37,13.37,0,0,0,51.7,49.43c0,.19,0,.37,0,.56a7,7,0,0,0-1-.08,7.94,7.94,0,0,0,0,15.88,8.79,8.79,0,0,0,1.16-.09v.09H81.41a9.88,9.88,0,1,0,0-19.76Z"/></g></svg>