<svg xmlns="http://www.w3.org/2000/svg" width="96" height="96" viewBox="0 0 96 96"><defs><style>.cls-1{fill:none;}.cls-2{fill:#5eb4e9;}.cls-3{opacity:0.6;}.cls-4{fill:#fffbf1;}.cls-4,.cls-6{fill-rule:evenodd;}.cls-5{opacity:0.85;}.cls-6{fill:#eaeaea;}.cls-7{fill:#a6a6a6;}.cls-8{opacity:0.15;}.cls-9{fill:#787878;}.cls-10{fill:#6d6d6d;}</style></defs><title>18-heavy-showers-night</title><g id="Forecast_Icons_Outlined" data-name="Forecast Icons Outlined"><rect class="cls-1" y="-0.02" width="96" height="96"/><path class="cls-2" d="M21.71,87.42a2.6,2.6,0,0,1-2.6-2.6V53.53a2.6,2.6,0,0,1,5.2,0V84.82A2.59,2.59,0,0,1,21.71,87.42Z"/><path class="cls-2" d="M32.09,81.46a2.6,2.6,0,0,1-2.6-2.6V65.92a2.6,2.6,0,1,1,5.2,0V78.86A2.59,2.59,0,0,1,32.09,81.46Z"/><g class="cls-3"><path class="cls-2" d="M32.09,94.76a2.61,2.61,0,0,1-2.6-2.6V89.24a2.6,2.6,0,0,1,5.2,0v2.92A2.6,2.6,0,0,1,32.09,94.76Z"/></g><g class="cls-3"><path class="cls-2" d="M42.47,69.42a2.6,2.6,0,0,1-2.6-2.6V53.53a2.6,2.6,0,0,1,5.2,0V66.82A2.59,2.59,0,0,1,42.47,69.42Z"/></g><path class="cls-2" d="M52.85,77.69a2.59,2.59,0,0,1-2.6-2.6V53.53a2.6,2.6,0,0,1,5.2,0V75.09A2.6,2.6,0,0,1,52.85,77.69Z"/><g class="cls-3"><path class="cls-2" d="M52.85,93.75a2.6,2.6,0,0,1-2.6-2.6V85.47a2.6,2.6,0,0,1,5.2,0v5.68A2.61,2.61,0,0,1,52.85,93.75Z"/></g><g class="cls-3"><path class="cls-2" d="M63.23,91.48a2.6,2.6,0,0,1-2.6-2.6V75.47a2.6,2.6,0,0,1,5.2,0V88.88A2.61,2.61,0,0,1,63.23,91.48Z"/></g><path class="cls-2" d="M63.23,67.69a2.59,2.59,0,0,1-2.6-2.6V59.47a2.6,2.6,0,0,1,5.2,0v5.62A2.6,2.6,0,0,1,63.23,67.69Z"/><g class="cls-3"><path class="cls-2" d="M11.34,72.67a2.6,2.6,0,0,1-2.6-2.6V65.89a2.6,2.6,0,1,1,5.19,0v4.18A2.6,2.6,0,0,1,11.34,72.67Z"/></g><path class="cls-2" d="M11.34,92.72a2.59,2.59,0,0,1-2.6-2.6V80.44a2.6,2.6,0,1,1,5.19,0v9.68A2.59,2.59,0,0,1,11.34,92.72Z"/><g class="cls-3"><path class="cls-2" d="M42.47,80a2.6,2.6,0,0,1-2.6-2.6V77.2a2.6,2.6,0,1,1,5.2,0v.16A2.59,2.59,0,0,1,42.47,80Z"/></g><path class="cls-2" d="M42.47,90.83a2.61,2.61,0,0,1-2.6-2.6v-.49a2.6,2.6,0,0,1,5.2,0v.49A2.6,2.6,0,0,1,42.47,90.83Z"/><path class="cls-4" d="M52,6.29a17.06,17.06,0,1,1,0,24.13A17.07,17.07,0,0,1,52,6.29"/><g class="cls-5"><path class="cls-6" d="M65.47,1.36a24.89,24.89,0,0,0,1,33.87,17.05,17.05,0,0,0-1-33.87Z"/></g><path class="cls-7" d="M71.43,35.69a12.24,12.24,0,0,0,.79-4.34A12.57,12.57,0,0,0,59.65,18.77c-.28,0-.55,0-.83,0a16.54,16.54,0,1,0-31.53,10V54.5h40.1a9.84,9.84,0,0,0,4-18.81Z"/><g class="cls-8"><path class="cls-9" d="M26.51,22.91c0,.26,0,.52,0,.78a16.53,16.53,0,0,0,.82,5.15V54.5H63.61c1.68-4.35,1.45-9.69-2.31-16.19C51,20.45,35.78,18.74,26.51,22.91Z"/></g><path class="cls-10" d="M60.19,50.11a10.16,10.16,0,0,0-7.55-9.82,7.17,7.17,0,0,0,.59-2.86A7.26,7.26,0,0,0,46,30.16a7.18,7.18,0,0,0-2.28.4A16.16,16.16,0,0,0,12,34.36a13.08,13.08,0,0,0,2.41,25.93l.36,0v0H50.13A10.17,10.17,0,0,0,60.19,50.11Z"/></g></svg>