<svg xmlns="http://www.w3.org/2000/svg" width="96" height="96" viewBox="0 0 96 96"><defs><style>.cls-1{fill:none;}.cls-2{fill:#d3dbe2;}.cls-3{fill:#5eb4e9;}.cls-4{fill:#627e97;}</style></defs><title>19-tropical-cyclone</title><g id="Forecast_Icons_Outlined" data-name="Forecast Icons Outlined"><rect class="cls-1" width="96" height="96"/><path class="cls-2" d="M45,15.25A30.4,30.4,0,0,1,62.3,40.38c.08.8.12,1.62.12,2.44a23.74,23.74,0,0,1-1.53,8.38A33.19,33.19,0,0,0,66,49.4,30.56,30.56,0,0,0,40.56,5.65a.88.88,0,0,0-.68,1.48A33.36,33.36,0,0,1,45,15.25Z"/><path class="cls-2" d="M31.92,70.4A30.35,30.35,0,0,1,14.65,45.27a22,22,0,0,1-.13-2.45,23.73,23.73,0,0,1,1.54-8.37,33.3,33.3,0,0,0-5.15,1.8A30.57,30.57,0,0,0,36.39,80a.88.88,0,0,0,.68-1.48A33.06,33.06,0,0,1,31.92,70.4Z"/><path class="cls-3" d="M32.78,81.49a2.19,2.19,0,0,1-.36,0,32.46,32.46,0,0,1-4.85-1.31,2,2,0,1,1,1.3-3.68,29,29,0,0,0,4.27,1.15,2,2,0,0,1-.36,3.87Z"/><path class="cls-3" d="M21.36,76.79a2,2,0,0,1-1.09-.33,32.7,32.7,0,0,1-4.81-4c-.35-.34-.69-.7-1-1.07a2,2,0,0,1,2.88-2.63c.3.32.6.64.91,1a29.11,29.11,0,0,0,4.24,3.5,1.95,1.95,0,0,1-1.1,3.56Z"/><path class="cls-3" d="M11.4,65.68a1.94,1.94,0,0,1-1.73-1A32.61,32.61,0,0,1,5.93,49.47a2,2,0,0,1,3.9,0,28.63,28.63,0,0,0,3.29,13.35,2,2,0,0,1-.81,2.64A2,2,0,0,1,11.4,65.68Z"/><path class="cls-4" d="M74.17,44.23a32.7,32.7,0,0,1-13.28,7,23.74,23.74,0,0,0,1.53-8.38c0-.82,0-1.64-.12-2.44a30.58,30.58,0,0,0-61,.36.88.88,0,0,0,1.47.68,32.74,32.74,0,0,1,13.29-7,23.73,23.73,0,0,0-1.54,8.37,22,22,0,0,0,.13,2.45,30.58,30.58,0,0,0,61-.36A.88.88,0,0,0,74.17,44.23Zm-28.83,6a.25.25,0,0,1,.16.43A8.67,8.67,0,0,1,33.67,38h0a6.64,6.64,0,0,1,2-1.35,9.1,9.1,0,0,0-4.06-1.29.25.25,0,0,1-.16-.43A8.67,8.67,0,0,1,43.27,47.62h0a6.56,6.56,0,0,1-2,1.35A9.18,9.18,0,0,0,45.34,50.26Z"/></g></svg>